<?xml version="1.0" encoding="utf-8"?>
<svg viewBox="49.4674 62.3056 669.4227 158.4344"
  xmlns="http://www.w3.org/2000/svg">
  <g fill="#f5f5f5">
    <path d="m538.21 101.47c10.134 0 18.35-8.2155 18.35-18.35 0-10.1344-8.216-18.35-18.35-18.35-10.135 0-18.35 8.2156-18.35 18.35 0 10.1345 8.215 18.35 18.35 18.35z"/>
    <path d="m418.9 154.14-27.18 66.16h-28.76c-3.97 0-7.29-3.04-7.63-6.99l-8.71-103.9h20.81c6.57 0 11.93 5.27 12.04 11.84l5.61 63.22 30.7-75.06h13.8c6.48 0 11.79 5.12 12.03 11.6l2.33 63.04 30.74-74.64h13.55c8.86 0 14.68 9.24 10.86 17.23l-38.51 93.66h-31.73c-4.12 0-7.51-3.26-7.66-7.38l-2.3-58.78z"/>
    <path d="m517.43 109.41h19.1c7.57 0 13.27 6.91 11.82 14.35l-18.83 96.55h-24.41c-4.82 0-8.45-4.4-7.52-9.13l19.85-101.76z"/>
    <path d="m637.35 109.41-4.6 11.98c-3.36 8.75-11.76 14.52-21.13 14.52h-13.07l-16.33 84.39h-22.85c-5.63 0-9.85-5.13-8.78-10.66l19.54-100.02c1.7-8.9 4.1-16.3601 7.21-22.3701s7.03-10.85 11.77-14.53c4.73-3.68 10.39-6.32 16.96-7.95 6.57-1.62 14.24-2.31 23-2.44 4.84-.08 9.9.05 14 .21 4.22.16 7.04 4.39 5.6 8.36l-6.66 18.36c-2.4-.14-4.74-.25-7-.32s-4.31-.1-6.15-.1c-4.24 0-7.81.29-10.71.85-2.9.57-5.27 1.62-7.1 3.18-1.84 1.5601-3.32 3.68-4.45 6.36-1.13 2.6901-2.05 6.0801-2.76 10.1801h33.5z"/>
    <path d="m685.27 109.41 5.23-25.6501c1.76-10.09-6.02-19.32-16.26-19.29l-13.64.05-22.29 111.2601c-.42 2.41-.78 4.74-1.06 6.99-.29 2.26-.42 4.39-.42 6.36 0 9.89 2.86 17.6 8.59 23.11 5.72 5.51 14.88 8.27 27.46 8.27 1.41 0 17.45-.03 17.45-.03 4.17.02 7.58-2.78 8.64-6.48h-.01l7-20.21c-.71 0-2.01.04-3.92.11s-4.03.11-6.36.11h-11.56c-4.81 0-8.16-.85-10.07-2.54-1.91-1.7-2.86-4.24-2.86-7.63 0-2.4.28-4.8.85-7.21l7.84-40.71h13.28c9.37 0 17.77-5.77 21.13-14.52l4.6-11.99h-33.61z"/>
    <path d="m341.73 93.92c-5.09 0-21.45-.22-24.91-.22h-20.25c-6.78 0-12.02.98-15.69 2.94-3.68 1.97-5.94 5.13-6.78 9.5-.42 1.75-.64 3.42-.64 5.02 0 3.35.99 5.89 2.97 7.64 1.98 1.74 5.16 3.27 9.54 4.58l19.51 6.33c12.01 3.93 20.39 9.02 25.13 15.28 4.73 6.26 7.1 13.53 7.1 21.82 0 3.78-.42 7.86-1.27 12.23-1.56 8.15-4 14.88-7.31 20.18-3.32 5.32-7.71 9.57-13.15 12.77s-11.95 5.46-19.51 6.76c-7.56 1.31-16.36 1.97-26.4 1.97-6.5 0-14.24-.08-23.22-.22-4.95-.08-10.04-.14-15.27-.17-6.29-.04-10.63-6.53-8.4-12.58l6.18-16.71c4.1.15 8.41.25 12.93.32 4.52.08 8.91.11 13.15.11h19.51c8.48 0 14.88-.91 19.19-2.73 4.31-1.81 7.03-5.56 8.16-11.24.14-.72.25-1.45.32-2.18.07-.72.11-1.45.11-2.18 0-3.5-1.1-6.22-3.29-8.19s-5.48-3.67-9.86-5.13l-18.02-5.67c-6.22-2.04-11.45-4.29-15.69-6.76s-7.63-5.2-10.18-8.19c-2.54-2.98-4.38-6.25-5.51-9.82s-1.7-7.46-1.7-11.68c0-3.93.42-8.22 1.27-12.87 1.41-7.86 3.96-14.37 7.63-19.54 3.67-5.16 8.3-9.31 13.89-12.44 5.58-3.13 12.01-5.31 19.29-6.55s15.23-1.85 23.85-1.85c3.67 0 26.61.04 31.06.11 2.07.04 4.43.08 7.07.13 4.93.09 8.3 5.22 6.51 9.95z"/>
  </g>
  <path d="m202.22 62.33-74.5.61c-43.57.36-78.6 35.97-78.25 79.55.36 43.35 35.62 78.25 78.88 78.25h.66c41.15-.34 74.23-33.97 73.9-75.11zm-18.82 82.56c.12 14.78-5.54 28.73-15.93 39.3-10.39 10.56-24.25 16.45-39.03 16.57h-.5c-15.65 0-30.39-6.07-41.5-17.09-11.13-11.04-17.33-25.74-17.45-41.4-.14-15.75 5.88-30.61 16.92-41.85 11.05-11.23 25.81-17.48 41.57-17.62l55.41-.44z" fill="#f5f5f5"/>
</svg>